M48
;Layer_Color=9474304
;FILE_FORMAT=4:3
METRIC,LZ
;TYPE=PLATED
T1F00S00C0.500
T2F00S00C0.762
T3F00S00C1.000
T4F00S00C1.200
%
T01
X0094002Y0056759
X0100987Y0054759
T02
X0045Y0027
X0175
X0045Y0085
X0175
T03
X004925Y004071
Y004325
X0049Y0047
Y004954
X00485Y0065
Y006754
Y007846
X007575Y007604
Y00735
Y006729
Y006475
X007025Y006496
Y00675
X007Y004954
Y0047
X00485Y0081
T04
X007633Y005325
Y005825
M30
