%FSLAX43Y43*%
%MOMM*%
G71*
G01*
G75*
G04 Layer_Physical_Order=1*
G04 Layer_Color=255*
%ADD10C,0.500*%
%ADD11R,2.700X1.600*%
%ADD12R,1.000X0.850*%
%ADD13R,1.400X1.000*%
%ADD14R,0.900X0.800*%
%ADD15R,2.950X1.450*%
%ADD16R,1.600X1.300*%
%ADD17R,1.600X2.000*%
%ADD18R,1.000X0.700*%
%ADD19R,0.600X0.700*%
%ADD20R,0.700X0.600*%
%ADD21R,0.700X1.000*%
%ADD22C,1.524*%
%ADD23C,1.800*%
%ADD24R,1.800X1.800*%
%ADD25C,1.900*%
%ADD26C,1.000*%
D10*
X90036Y43336D02*
G03*
X91912Y45213I0J1876D01*
G01*
X96937Y81709D02*
G03*
X91937Y76709I0J-5000D01*
G01*
Y38437D02*
G03*
X89845Y40529I-2092J0D01*
G01*
X91937Y34809D02*
G03*
X96937Y29809I5000J0D01*
G01*
X170537Y29809D02*
G03*
X175537Y34809I0J5000D01*
G01*
Y52309D02*
G03*
X173037Y54809I-2500J0D01*
G01*
X166487D02*
G03*
X163987Y52309I0J-2500D01*
G01*
X160187Y40459D02*
G03*
X163987Y44259I0J3800D01*
G01*
X103487D02*
G03*
X107287Y40459I3800J0D01*
G01*
Y71059D02*
G03*
X103487Y67259I0J-3800D01*
G01*
X163987D02*
G03*
X160187Y71059I-3800J0D01*
G01*
X163987Y59209D02*
G03*
X166487Y56709I2500J0D01*
G01*
X173037D02*
G03*
X175537Y59209I0J2500D01*
G01*
Y76709D02*
G03*
X170537Y81709I-5000J0D01*
G01*
X63900Y55400D02*
X64250Y55750D01*
X63900Y60150D02*
X64000Y60250D01*
X63900Y58950D02*
Y60150D01*
X59750Y57000D02*
X59800Y57050D01*
X63900D01*
X56750Y57000D02*
X59750D01*
Y61750D01*
X61500Y52800D02*
Y57000D01*
X59750D02*
X61500D01*
Y52800D02*
X63900D01*
X54750Y48596D02*
X69346D01*
X54750D02*
Y50125D01*
Y52000D02*
Y54950D01*
X46000Y52000D02*
X54750D01*
Y50125D02*
Y52000D01*
X49000D02*
X54750D01*
X63900Y51850D02*
X64750Y51000D01*
Y49900D02*
Y51000D01*
X63900Y51850D02*
Y52800D01*
X64250Y55750D02*
X77784D01*
X63900Y54700D02*
Y55400D01*
X64000Y60250D02*
X77500D01*
X77784Y55750D02*
Y59966D01*
X77500Y60250D02*
X77784Y59966D01*
X59750Y61750D02*
X75750D01*
X59750D02*
Y64875D01*
X75750Y61750D02*
Y64750D01*
X46000Y78460D02*
X48500D01*
X46000Y52000D02*
Y78460D01*
X56750Y57250D02*
X56750Y57250D01*
X56750Y54950D02*
Y57250D01*
X59750Y50125D02*
Y53250D01*
X56750D02*
X59750D01*
X49250Y43336D02*
X90036D01*
X49250Y43250D02*
X49336Y43336D01*
X91912Y45213D02*
Y76709D01*
X49250Y40529D02*
X89845D01*
X49250Y40710D02*
X49431Y40529D01*
X91937Y34809D02*
Y38437D01*
X46105Y59950D02*
X54750D01*
X49000Y49540D02*
Y52000D01*
X46000Y70000D02*
X54750D01*
X48500Y81500D02*
Y82750D01*
X49000Y45250D02*
Y47400D01*
Y45250D02*
X54750D01*
X70000Y45300D02*
Y47000D01*
X64750Y45300D02*
X70000D01*
X64750D02*
Y47100D01*
X69346Y48596D02*
X70540Y49790D01*
X77784D01*
X46040Y67540D02*
X48500D01*
Y63500D02*
Y65300D01*
Y63500D02*
X54750D01*
X96937Y29809D02*
X170537D01*
X175537Y34809D02*
Y52309D01*
X166487Y54809D02*
X173037D01*
X163987Y44259D02*
Y52309D01*
X107287Y40459D02*
X160187D01*
X103487Y44259D02*
Y67259D01*
X107287Y71059D02*
X160187D01*
X163987Y59209D02*
Y67259D01*
X166487Y56709D02*
X173037D01*
X175537Y59209D02*
Y76709D01*
X96937Y81709D02*
X170537D01*
X94002Y56759D02*
X95986Y54759D01*
X100987D01*
X59830Y81104D02*
Y82804D01*
X58887Y74279D02*
Y76418D01*
X48500Y82750D02*
X54750D01*
Y81125D02*
Y82750D01*
Y76500D02*
Y77875D01*
Y76500D02*
X59830D01*
Y77854D01*
X64330Y77854D02*
X64750Y77434D01*
X60700Y74279D02*
X62500D01*
Y82804D01*
X64330Y81104D02*
X65229D01*
X65250Y81125D01*
Y82804D01*
X59830D02*
X70250D01*
X69330Y81104D02*
X70229D01*
X70250Y81125D01*
Y82804D01*
X59000Y70000D02*
Y72279D01*
X60700D01*
X54750Y67900D02*
Y70000D01*
X54750Y70000D01*
X59000D01*
X54750Y63500D02*
Y65100D01*
X59750Y66500D02*
Y68125D01*
X57000Y66500D02*
X59750D01*
X59000Y70000D02*
X65250D01*
X54725Y45275D02*
X54750Y45300D01*
Y46875D01*
X54725Y45275D02*
X59725D01*
X59750Y45300D01*
Y46875D01*
X75905Y57825D02*
X76330Y58250D01*
X70250Y53675D02*
X75905D01*
X76330Y53250D01*
X65250Y68125D02*
Y70000D01*
X65250Y70000D01*
X54750Y63500D02*
X57000D01*
Y66500D01*
X70250Y57825D02*
X75905D01*
X56750Y57250D02*
Y59000D01*
X66100Y53750D02*
X70175D01*
X70250Y53675D01*
X66100Y58000D02*
X70075D01*
X70250Y57825D01*
X65250Y73750D02*
X68800D01*
X65250Y70000D02*
Y73750D01*
Y77875D01*
X75750Y73500D02*
X77750D01*
X54750Y45250D02*
Y46875D01*
X75750Y64750D02*
X77750D01*
X65250Y63250D02*
Y64875D01*
Y63250D02*
X70250D01*
Y64960D01*
X72750Y64750D02*
X75750D01*
X72500Y65000D02*
X72750Y64750D01*
X72500Y65000D02*
Y67500D01*
X70250D02*
X72500D01*
X77784Y49790D02*
Y55750D01*
X70250Y76040D02*
Y77875D01*
Y76040D02*
X75750D01*
X77750Y64750D02*
Y73500D01*
X71700Y71800D02*
Y72500D01*
X73250D01*
Y69250D02*
Y72500D01*
Y69250D02*
X75750D01*
Y67290D02*
Y69250D01*
D11*
X54750Y67900D02*
D03*
Y65100D02*
D03*
X64750Y47100D02*
D03*
Y49900D02*
D03*
D12*
X70250Y53675D02*
D03*
Y57825D02*
D03*
D13*
X66100Y58000D02*
D03*
X63900Y57050D02*
D03*
Y58950D02*
D03*
X66100Y53750D02*
D03*
X63900Y52800D02*
D03*
Y54700D02*
D03*
D14*
X56750Y59000D02*
D03*
X54750Y58050D02*
D03*
Y59950D02*
D03*
D15*
X59750Y68125D02*
D03*
Y64875D02*
D03*
X70250Y81125D02*
D03*
Y77875D02*
D03*
X65250Y64875D02*
D03*
Y68125D02*
D03*
X59750Y77875D02*
D03*
Y81125D02*
D03*
X54750Y81125D02*
D03*
Y77875D02*
D03*
X65250Y81125D02*
D03*
Y77875D02*
D03*
X59750Y46875D02*
D03*
Y50125D02*
D03*
X54750Y50125D02*
D03*
Y46875D02*
D03*
D16*
X68800Y71250D02*
D03*
Y73750D02*
D03*
D17*
X71700Y72500D02*
D03*
D18*
X59000Y72279D02*
D03*
D19*
X60700D02*
D03*
X58800Y74279D02*
D03*
X60700D02*
D03*
D20*
X54750Y54950D02*
D03*
Y53050D02*
D03*
X56750Y54950D02*
D03*
D21*
Y53250D02*
D03*
D22*
X45000Y27000D02*
D03*
X175000D02*
D03*
Y85000D02*
D03*
X45000D02*
D03*
D23*
X70000Y49540D02*
D03*
X48500Y78460D02*
D03*
X49250Y40710D02*
D03*
X48500Y67540D02*
D03*
X70250Y64960D02*
D03*
X75750Y67290D02*
D03*
Y76040D02*
D03*
X49000Y49540D02*
D03*
D24*
X70000Y47000D02*
D03*
X48500Y81000D02*
D03*
X49250Y43250D02*
D03*
X48500Y65000D02*
D03*
X70250Y67500D02*
D03*
X75750Y64750D02*
D03*
Y73500D02*
D03*
X49000Y47000D02*
D03*
D25*
X76330Y58250D02*
D03*
Y53250D02*
D03*
D26*
X94002Y56759D02*
D03*
X100987Y54759D02*
D03*
M02*
