M48
;Layer_Color=9474304
;FILE_FORMAT=4:3
METRIC,LZ
;TYPE=PLATED
T1F00S00C0.500
T2F00S00C0.711
T3F00S00C1.000
T4F00S00C1.200
%
T01
X0094002Y0056759
X0100987Y0054759
T02
X006275Y008475
X00775Y00835
T03
X00815Y005446
Y0057
X0079Y00655
Y006804
X0074
Y00655
X007
Y006804
X006896Y00775
X00715
X0049Y00745
Y007196
Y00635
Y006096
X004925Y004979
Y004725
X004925Y004325
Y004071
X007Y0047
Y004954
X006279Y00825
X006025
T04
X007633Y005325
Y005825
M30
