%FSLAX43Y43*%
%MOMM*%
G71*
G01*
G75*
G04 Layer_Color=16711935*
%ADD10C,0.500*%
%ADD11R,0.700X1.000*%
%ADD12R,0.700X0.600*%
%ADD13R,1.000X0.700*%
%ADD14R,0.600X0.700*%
%ADD15R,0.500X0.850*%
%ADD16R,2.950X1.450*%
%ADD17R,2.700X1.600*%
%ADD18R,1.450X2.950*%
%ADD19R,1.600X1.300*%
%ADD20R,1.600X2.000*%
%ADD21R,0.900X0.800*%
%ADD22R,1.400X1.000*%
%ADD23R,1.000X0.850*%
%ADD24R,1.800X1.800*%
%ADD25C,1.800*%
%ADD26R,1.800X1.800*%
%ADD27C,1.900*%
%ADD28C,1.000*%
%ADD29C,1.270*%
%ADD30C,0.127*%
%ADD31C,0.203*%
%ADD32R,0.903X1.203*%
%ADD33R,0.903X0.803*%
%ADD34R,1.203X0.903*%
%ADD35R,0.803X0.903*%
%ADD36R,0.703X1.053*%
%ADD37R,3.153X1.653*%
%ADD38R,2.903X1.803*%
%ADD39R,1.653X3.153*%
%ADD40R,1.803X1.503*%
%ADD41R,1.803X2.203*%
%ADD42R,1.103X1.003*%
%ADD43R,1.603X1.203*%
%ADD44R,1.203X1.053*%
%ADD45R,2.003X2.003*%
%ADD46C,2.003*%
%ADD47R,2.003X2.003*%
%ADD48C,2.103*%
%ADD49C,1.203*%
%ADD50C,1.473*%
D45*
X70000Y47000D02*
D03*
X79000Y65500D02*
D03*
X49000Y47000D02*
D03*
Y74000D02*
D03*
X49250Y43250D02*
D03*
X49000Y63500D02*
D03*
X74000Y65500D02*
D03*
X70000D02*
D03*
D46*
Y49540D02*
D03*
X62790Y82500D02*
D03*
X79000Y68040D02*
D03*
X49000Y49540D02*
D03*
Y71460D02*
D03*
X49250Y40710D02*
D03*
X49000Y60960D02*
D03*
X68960Y77500D02*
D03*
X74000Y68040D02*
D03*
X70000D02*
D03*
D47*
X60250Y82500D02*
D03*
X71500Y77500D02*
D03*
D48*
X76330Y58250D02*
D03*
Y53250D02*
D03*
D49*
X94002Y56759D02*
D03*
X100987Y54759D02*
D03*
D50*
X77500Y83500D02*
D03*
X62750Y84750D02*
D03*
M02*
