%FSLAX43Y43*%
%MOMM*%
G71*
G01*
G75*
G04 Layer_Physical_Order=1*
G04 Layer_Color=255*
%ADD10C,0.500*%
%ADD11R,2.700X1.600*%
%ADD12R,1.000X0.850*%
%ADD13R,1.400X1.000*%
%ADD14R,0.900X0.800*%
%ADD15R,2.950X1.450*%
%ADD16R,1.450X2.950*%
%ADD17R,1.600X1.300*%
%ADD18R,1.600X2.000*%
%ADD19R,1.000X0.700*%
%ADD20R,0.600X0.700*%
%ADD21R,0.700X0.600*%
%ADD22R,0.700X1.000*%
%ADD23R,0.500X0.850*%
%ADD24C,1.800*%
%ADD25R,1.800X1.800*%
%ADD26C,1.900*%
%ADD27R,1.800X1.800*%
%ADD28C,1.000*%
%ADD29C,1.270*%
G36*
X87500Y43850D02*
X50404D01*
Y44404D01*
X48096D01*
Y42096D01*
X50404D01*
Y42822D01*
X87500D01*
Y41043D01*
X50361D01*
X50258Y41292D01*
X50073Y41533D01*
X49832Y41718D01*
X49551Y41834D01*
X49250Y41874D01*
X48949Y41834D01*
X48668Y41718D01*
X48427Y41533D01*
X48242Y41292D01*
X48126Y41011D01*
X48086Y40710D01*
X48126Y40409D01*
X48242Y40128D01*
X48427Y39887D01*
X48668Y39702D01*
X48949Y39586D01*
X49250Y39546D01*
X49551Y39586D01*
X49832Y39702D01*
X50073Y39887D01*
X50171Y40015D01*
X87500D01*
Y29000D01*
X46500D01*
Y90000D01*
X69015D01*
X69082Y89873D01*
X69048Y89700D01*
Y86250D01*
Y85037D01*
X69058Y84988D01*
Y84622D01*
X68264D01*
Y84750D01*
X68225Y84947D01*
X68113Y85113D01*
X67947Y85225D01*
X67750Y85264D01*
X63476D01*
X63384Y85384D01*
X63198Y85527D01*
X62982Y85616D01*
X62750Y85647D01*
X62518Y85616D01*
X62302Y85527D01*
X62116Y85384D01*
X61973Y85198D01*
X61884Y84982D01*
X61853Y84750D01*
X61884Y84518D01*
X61973Y84302D01*
X62116Y84116D01*
X62302Y83973D01*
X62518Y83884D01*
X62750Y83853D01*
X62982Y83884D01*
X63198Y83973D01*
X63384Y84116D01*
X63476Y84236D01*
X67236D01*
Y84108D01*
Y84104D01*
X67146D01*
Y82896D01*
X68254D01*
Y83500D01*
X68264Y83550D01*
Y83595D01*
X70533D01*
X70729Y83634D01*
X70781Y83668D01*
X70908Y83600D01*
Y82646D01*
X72116D01*
Y82986D01*
X72996D01*
Y82896D01*
X74104D01*
Y84104D01*
X73014D01*
Y86250D01*
X72975Y86447D01*
X72863Y86613D01*
X72697Y86725D01*
X72500Y86764D01*
X71134D01*
X71016Y86784D01*
Y87413D01*
X71025Y87463D01*
Y88236D01*
X73048D01*
Y87463D01*
X73058Y87413D01*
Y86784D01*
X74066D01*
Y87413D01*
X74075Y87463D01*
Y88236D01*
X74879D01*
X74958Y88142D01*
Y87512D01*
X74948Y87463D01*
Y84104D01*
X74896D01*
Y82896D01*
X76004D01*
Y82986D01*
X76774D01*
X76866Y82866D01*
X77052Y82723D01*
X77268Y82634D01*
X77500Y82603D01*
X77732Y82634D01*
X77948Y82723D01*
X78134Y82866D01*
X78226Y82986D01*
X78762D01*
X78958Y83025D01*
X79071Y83100D01*
X79198Y83034D01*
Y80454D01*
X77396D01*
Y78346D01*
X80604D01*
Y78886D01*
X82486D01*
Y75354D01*
X81271D01*
Y73396D01*
X84729D01*
Y75354D01*
X83514D01*
Y79400D01*
X83475Y79597D01*
X83363Y79763D01*
X83197Y79875D01*
X83000Y79914D01*
X80604D01*
Y80454D01*
X80225D01*
Y87463D01*
Y89700D01*
X80191Y89873D01*
X80258Y90000D01*
X87500D01*
Y43850D01*
D02*
G37*
G36*
X79198Y87463D02*
Y85716D01*
X78258D01*
Y85087D01*
X78248Y85037D01*
Y84195D01*
X78176Y84156D01*
X78121Y84144D01*
X77948Y84277D01*
X77732Y84366D01*
X77500Y84397D01*
X77268Y84366D01*
X77052Y84277D01*
X76866Y84134D01*
X76774Y84014D01*
X76004D01*
Y84104D01*
X75975D01*
Y87463D01*
X75966Y87512D01*
Y88142D01*
X76044Y88236D01*
X77298D01*
Y87463D01*
X77308Y87413D01*
Y86784D01*
X78316D01*
Y87413D01*
X78325Y87463D01*
Y88700D01*
X78286Y88897D01*
X78178Y89059D01*
X78183Y89085D01*
X78214Y89169D01*
X78227Y89186D01*
X79198D01*
Y87463D01*
D02*
G37*
%LPC*%
G36*
X82654Y58154D02*
X80346D01*
Y55846D01*
X82654D01*
Y58154D01*
D02*
G37*
G36*
X55454Y58704D02*
X54046D01*
Y57396D01*
X55454D01*
Y58704D01*
D02*
G37*
G36*
X56354Y66154D02*
X53146D01*
Y64046D01*
X53032Y64014D01*
X50154D01*
Y64654D01*
X47846D01*
Y62346D01*
X50154D01*
Y62986D01*
X59750D01*
X59947Y63025D01*
X60113Y63137D01*
X60225Y63303D01*
X60264Y63500D01*
Y63896D01*
X61479D01*
Y65854D01*
X58021D01*
Y64014D01*
X56468D01*
X56354Y64046D01*
Y66154D01*
D02*
G37*
G36*
X76330Y59464D02*
X76016Y59423D01*
X75723Y59302D01*
X75471Y59109D01*
X75278Y58857D01*
X75157Y58564D01*
X75127Y58339D01*
X71004D01*
Y58504D01*
X70125D01*
X70075Y58514D01*
X67054D01*
Y58754D01*
X65146D01*
Y57246D01*
X67054D01*
Y57486D01*
X69496D01*
Y57146D01*
X71004D01*
Y57311D01*
X75576D01*
X75723Y57198D01*
X76016Y57077D01*
X76330Y57036D01*
X76644Y57077D01*
X76937Y57198D01*
X77189Y57391D01*
X77382Y57643D01*
X77503Y57936D01*
X77544Y58250D01*
X77503Y58564D01*
X77382Y58857D01*
X77189Y59109D01*
X76937Y59302D01*
X76644Y59423D01*
X76330Y59464D01*
D02*
G37*
G36*
X71154Y48154D02*
X68846D01*
Y45846D01*
X68732Y45814D01*
X65264D01*
Y46046D01*
X66354D01*
Y48154D01*
X63146D01*
Y46046D01*
X64236D01*
Y45300D01*
X64275Y45103D01*
X64387Y44937D01*
X64553Y44825D01*
X64750Y44786D01*
X70000D01*
X70197Y44825D01*
X70363Y44937D01*
X70475Y45103D01*
X70514Y45300D01*
Y45846D01*
X71154D01*
Y48154D01*
D02*
G37*
G36*
X50404Y48404D02*
X48096D01*
Y46096D01*
X48486D01*
Y45250D01*
X48525Y45053D01*
X48637Y44887D01*
X48803Y44775D01*
X49000Y44736D01*
X54750D01*
X54750Y44736D01*
X54876Y44761D01*
X59725D01*
X59922Y44800D01*
X60088Y44912D01*
X60113Y44937D01*
X60225Y45103D01*
X60264Y45300D01*
Y45896D01*
X61479D01*
Y47854D01*
X58021D01*
Y45896D01*
X58021Y45896D01*
X58021D01*
X58021Y45896D01*
X57973Y45789D01*
X56527D01*
X56479Y45896D01*
X56479Y45896D01*
X56479D01*
X56479Y45896D01*
Y47854D01*
X53021D01*
Y45896D01*
X54236D01*
Y45764D01*
X49514D01*
Y46096D01*
X50404D01*
Y48404D01*
D02*
G37*
G36*
X57354Y54004D02*
X56146D01*
Y52496D01*
X57354D01*
Y52736D01*
X59236D01*
Y51104D01*
X58021D01*
Y49146D01*
X61479D01*
Y51104D01*
X60264D01*
Y53250D01*
X60225Y53447D01*
X60113Y53613D01*
X59947Y53725D01*
X59750Y53764D01*
X57354D01*
Y54004D01*
D02*
G37*
G36*
X81500Y55624D02*
X81199Y55584D01*
X80918Y55468D01*
X80677Y55283D01*
X80492Y55042D01*
X80376Y54761D01*
X80336Y54460D01*
X80376Y54159D01*
X80492Y53878D01*
X80677Y53637D01*
X80918Y53452D01*
X81199Y53336D01*
X81500Y53296D01*
X81801Y53336D01*
X82082Y53452D01*
X82323Y53637D01*
X82508Y53878D01*
X82624Y54159D01*
X82664Y54460D01*
X82624Y54761D01*
X82508Y55042D01*
X82323Y55283D01*
X82082Y55468D01*
X81801Y55584D01*
X81500Y55624D01*
D02*
G37*
G36*
X67054Y54504D02*
X65146D01*
Y52996D01*
X67054D01*
Y53236D01*
X69496D01*
Y52996D01*
X71004D01*
Y53161D01*
X75127D01*
X75157Y52936D01*
X75278Y52643D01*
X75471Y52391D01*
X75723Y52198D01*
X76016Y52077D01*
X76330Y52036D01*
X76644Y52077D01*
X76937Y52198D01*
X77189Y52391D01*
X77382Y52643D01*
X77503Y52936D01*
X77544Y53250D01*
X77503Y53564D01*
X77382Y53857D01*
X77189Y54109D01*
X76937Y54302D01*
X76644Y54423D01*
X76330Y54464D01*
X76016Y54423D01*
X75723Y54302D01*
X75576Y54189D01*
X71004D01*
Y54354D01*
X69496D01*
Y54264D01*
X67054D01*
Y54504D01*
D02*
G37*
G36*
X70000Y69204D02*
X69699Y69164D01*
X69418Y69048D01*
X69177Y68863D01*
X68992Y68622D01*
X68964Y68554D01*
X67626D01*
X67430Y68515D01*
X67263Y68403D01*
X67151Y68237D01*
X67112Y68040D01*
Y65389D01*
X66979D01*
Y65854D01*
X63521D01*
Y63896D01*
X66979D01*
Y64361D01*
X67375D01*
X67572Y64400D01*
X67738Y64512D01*
X67990Y64763D01*
X68101Y64930D01*
X68140Y65126D01*
Y67526D01*
X68964D01*
X68992Y67458D01*
X69177Y67217D01*
X69418Y67032D01*
X69699Y66916D01*
X70000Y66876D01*
X70301Y66916D01*
X70582Y67032D01*
X70823Y67217D01*
X71008Y67458D01*
X71124Y67739D01*
X71164Y68040D01*
X71124Y68341D01*
X71008Y68622D01*
X70823Y68863D01*
X70582Y69048D01*
X70301Y69164D01*
X70000Y69204D01*
D02*
G37*
G36*
X63604Y79229D02*
X61646D01*
Y75771D01*
X63604D01*
Y76986D01*
X67924D01*
X67952Y76918D01*
X68137Y76677D01*
X68378Y76492D01*
X68659Y76376D01*
X68960Y76336D01*
X69261Y76376D01*
X69542Y76492D01*
X69783Y76677D01*
X69968Y76918D01*
X70084Y77199D01*
X70124Y77500D01*
X70084Y77801D01*
X69968Y78082D01*
X69783Y78323D01*
X69542Y78508D01*
X69261Y78624D01*
X68960Y78664D01*
X68659Y78624D01*
X68378Y78508D01*
X68137Y78323D01*
X67952Y78082D01*
X67924Y78014D01*
X63604D01*
Y79229D01*
D02*
G37*
G36*
X55104Y83229D02*
X53146D01*
Y79771D01*
X55104D01*
Y80986D01*
X55936D01*
Y77316D01*
Y75104D01*
X55896D01*
Y73896D01*
X57004D01*
Y73986D01*
X58162D01*
X58396Y73752D01*
Y71771D01*
X60354D01*
Y75229D01*
X58396D01*
Y75031D01*
X58375Y75014D01*
X57004D01*
Y75104D01*
X56964D01*
Y76986D01*
X58396D01*
Y75771D01*
X60354D01*
Y79229D01*
X58396D01*
Y78014D01*
X56964D01*
Y81500D01*
X56925Y81697D01*
X56813Y81863D01*
X56647Y81975D01*
X56450Y82014D01*
X55104D01*
Y83229D01*
D02*
G37*
G36*
X66354Y84104D02*
X65246D01*
Y83673D01*
X65087Y83514D01*
X63358D01*
X63091Y83624D01*
X62790Y83664D01*
X62489Y83624D01*
X62208Y83508D01*
X61967Y83323D01*
X61782Y83082D01*
X61666Y82801D01*
X61626Y82500D01*
X61666Y82199D01*
X61782Y81918D01*
X61967Y81677D01*
X62208Y81492D01*
X62489Y81376D01*
X62790Y81336D01*
X63091Y81376D01*
X63372Y81492D01*
X63613Y81677D01*
X63798Y81918D01*
X63914Y82199D01*
X63952Y82486D01*
X65300D01*
X65497Y82525D01*
X65663Y82637D01*
X65923Y82896D01*
X66354D01*
Y84104D01*
D02*
G37*
G36*
X76004Y82104D02*
X74896D01*
Y82014D01*
X74504D01*
Y82104D01*
X72996D01*
Y82014D01*
X71512D01*
X71315Y81975D01*
X71148Y81863D01*
X71142Y81854D01*
X70908D01*
Y80746D01*
X70998D01*
Y80264D01*
X66514D01*
Y80896D01*
X66754D01*
Y80986D01*
X67146D01*
Y80896D01*
X68254D01*
Y82104D01*
X67146D01*
Y82014D01*
X66754D01*
Y82104D01*
X65246D01*
Y80896D01*
X65486D01*
Y79750D01*
X65525Y79553D01*
X65637Y79387D01*
X65803Y79275D01*
X66000Y79236D01*
X71500D01*
X71697Y79275D01*
X71863Y79387D01*
X71875Y79398D01*
X71949Y79510D01*
X71986Y79565D01*
X72025Y79762D01*
Y80746D01*
X72116D01*
Y80986D01*
X72996D01*
Y80896D01*
X74504D01*
Y80986D01*
X74896D01*
Y80896D01*
X76004D01*
Y82104D01*
D02*
G37*
G36*
X51854Y83229D02*
X49896D01*
Y79771D01*
X51854D01*
Y80986D01*
X51986D01*
Y74500D01*
X52025Y74303D01*
X52137Y74137D01*
X52303Y74025D01*
X52500Y73986D01*
X53996D01*
Y73896D01*
X55104D01*
Y75104D01*
X53996D01*
Y75014D01*
X53014D01*
Y76986D01*
X53146D01*
Y75771D01*
X55104D01*
Y79229D01*
X53146D01*
Y78014D01*
X53014D01*
Y81500D01*
X52975Y81697D01*
X52863Y81863D01*
X52697Y81975D01*
X52500Y82014D01*
X51854D01*
Y83229D01*
D02*
G37*
G36*
X72654Y78654D02*
X70346D01*
Y76346D01*
X72654D01*
Y76986D01*
X74986D01*
Y68848D01*
X74866Y68807D01*
X74823Y68863D01*
X74582Y69048D01*
X74514Y69076D01*
Y70200D01*
X74475Y70397D01*
X74363Y70563D01*
X72754Y72173D01*
Y73754D01*
X70646D01*
Y71246D01*
X72227D01*
X73486Y69987D01*
Y69076D01*
X73418Y69048D01*
X73177Y68863D01*
X72992Y68622D01*
X72876Y68341D01*
X72836Y68040D01*
X72876Y67739D01*
X72992Y67458D01*
X73177Y67217D01*
X73418Y67032D01*
X73699Y66916D01*
X74000Y66876D01*
X74301Y66916D01*
X74582Y67032D01*
X74823Y67217D01*
X74866Y67273D01*
X74986Y67232D01*
Y66654D01*
X72846D01*
Y64346D01*
X73486D01*
Y63514D01*
X70514D01*
Y64346D01*
X71154D01*
Y66654D01*
X68846D01*
Y64346D01*
X69486D01*
Y63514D01*
X63014D01*
Y68000D01*
X62975Y68197D01*
X62863Y68363D01*
X62738Y68488D01*
X62572Y68600D01*
X62375Y68639D01*
X61479D01*
Y69104D01*
X58021D01*
Y67146D01*
X61479D01*
Y67611D01*
X61986D01*
Y63514D01*
X61500D01*
X61303Y63475D01*
X61137Y63363D01*
X61025Y63197D01*
X60986Y63000D01*
Y57514D01*
X57264D01*
Y58346D01*
X57454D01*
Y59654D01*
X56046D01*
Y58346D01*
X56236D01*
Y57250D01*
X56236Y57250D01*
Y55504D01*
X56146D01*
Y54396D01*
X57354D01*
Y55504D01*
X57264D01*
Y56486D01*
X60986D01*
Y52800D01*
X61025Y52603D01*
X61137Y52437D01*
X61303Y52325D01*
X61500Y52286D01*
X62946D01*
Y52046D01*
X63386D01*
Y51850D01*
X63425Y51653D01*
X63537Y51487D01*
X63952Y51071D01*
X63903Y50954D01*
X63146D01*
Y48846D01*
X66354D01*
Y50954D01*
X65264D01*
Y51000D01*
X65225Y51197D01*
X65188Y51252D01*
X65113Y51363D01*
X64548Y51929D01*
X64597Y52046D01*
X64854D01*
Y53554D01*
X62946D01*
Y53314D01*
X62014D01*
Y56536D01*
X62946D01*
Y56296D01*
X64854D01*
Y57804D01*
X62946D01*
Y57564D01*
X62014D01*
Y62486D01*
X79000D01*
X79197Y62525D01*
X79363Y62637D01*
X79475Y62803D01*
X79514Y63000D01*
Y64346D01*
X80154D01*
Y66654D01*
X77846D01*
Y64346D01*
X78486D01*
Y63514D01*
X74514D01*
Y64346D01*
X75154D01*
Y64986D01*
X75500D01*
X75697Y65025D01*
X75863Y65137D01*
X75975Y65303D01*
X76014Y65500D01*
Y77500D01*
X75975Y77697D01*
X75863Y77863D01*
X75697Y77975D01*
X75500Y78014D01*
X72654D01*
Y78654D01*
D02*
G37*
G36*
X80604Y72154D02*
X77396D01*
Y70046D01*
X78486D01*
Y69076D01*
X78418Y69048D01*
X78177Y68863D01*
X77992Y68622D01*
X77876Y68341D01*
X77836Y68040D01*
X77876Y67739D01*
X77992Y67458D01*
X78177Y67217D01*
X78418Y67032D01*
X78699Y66916D01*
X79000Y66876D01*
X79301Y66916D01*
X79582Y67032D01*
X79823Y67217D01*
X80008Y67458D01*
X80123Y67736D01*
X83000D01*
X83197Y67775D01*
X83363Y67887D01*
X83475Y68053D01*
X83514Y68250D01*
Y70146D01*
X84729D01*
Y72104D01*
X81271D01*
Y70146D01*
X82486D01*
Y68764D01*
X79899D01*
X79823Y68863D01*
X79582Y69048D01*
X79514Y69076D01*
Y70046D01*
X80604D01*
Y72154D01*
D02*
G37*
G36*
X51854Y79229D02*
X49896D01*
Y78014D01*
X49000D01*
X48803Y77975D01*
X48637Y77863D01*
X48525Y77697D01*
X48486Y77500D01*
Y75654D01*
X47846D01*
Y73346D01*
X50154D01*
Y75654D01*
X50154Y75654D01*
X50154D01*
X50154Y75654D01*
X50178Y75771D01*
X51854D01*
Y79229D01*
D02*
G37*
G36*
X69854Y72154D02*
X67746D01*
Y70346D01*
X69854D01*
Y72154D01*
D02*
G37*
%LPD*%
D10*
X90036Y43336D02*
G03*
X91912Y45213I0J1876D01*
G01*
X96937Y81709D02*
G03*
X91937Y76709I0J-5000D01*
G01*
Y38437D02*
G03*
X89845Y40529I-2092J0D01*
G01*
X91937Y34809D02*
G03*
X96937Y29809I5000J0D01*
G01*
X170537Y29809D02*
G03*
X175537Y34809I0J5000D01*
G01*
Y52309D02*
G03*
X173037Y54809I-2500J0D01*
G01*
X166487D02*
G03*
X163987Y52309I0J-2500D01*
G01*
X160187Y40459D02*
G03*
X163987Y44259I0J3800D01*
G01*
X103487D02*
G03*
X107287Y40459I3800J0D01*
G01*
Y71059D02*
G03*
X103487Y67259I0J-3800D01*
G01*
X163987D02*
G03*
X160187Y71059I-3800J0D01*
G01*
X163987Y59209D02*
G03*
X166487Y56709I2500J0D01*
G01*
X173037D02*
G03*
X175537Y59209I0J2500D01*
G01*
Y76709D02*
G03*
X170537Y81709I-5000J0D01*
G01*
X83000Y68250D02*
Y71125D01*
X79000Y68250D02*
X83000D01*
X79000Y68040D02*
Y68250D01*
Y68040D02*
Y71100D01*
X63900Y55400D02*
X64250Y55750D01*
X63900Y60150D02*
X64000Y60250D01*
X63900Y58950D02*
Y60150D01*
X56750Y57000D02*
X61500D01*
Y52800D02*
X63900D01*
X54750Y48596D02*
X69346D01*
X54750D02*
Y50125D01*
Y52000D02*
Y54950D01*
Y50125D02*
Y52000D01*
X49000D02*
X54750D01*
X63900Y51850D02*
X64750Y51000D01*
Y49900D02*
Y51000D01*
X63900Y51850D02*
Y52800D01*
X64250Y55750D02*
X77784D01*
X63900Y54700D02*
Y55400D01*
X64000Y60250D02*
X77500D01*
X77784Y55750D02*
Y59966D01*
X77500Y60250D02*
X77784Y59966D01*
X56750Y57250D02*
X56750Y57250D01*
X56750Y54950D02*
Y57250D01*
X59750Y50125D02*
Y53250D01*
X56750D02*
X59750D01*
X49250Y43336D02*
X90036D01*
X49250Y43250D02*
X49336Y43336D01*
X91912Y45213D02*
Y76709D01*
X49250Y40529D02*
X89845D01*
X49250Y40710D02*
X49431Y40529D01*
X91937Y34809D02*
Y38437D01*
X49000Y49540D02*
Y52000D01*
Y45250D02*
Y47400D01*
Y45250D02*
X54750D01*
X70000Y45300D02*
Y47000D01*
X64750Y45300D02*
X70000D01*
X64750D02*
Y47100D01*
X69346Y48596D02*
X70540Y49790D01*
X77784D01*
X96937Y29809D02*
X170537D01*
X175537Y34809D02*
Y52309D01*
X166487Y54809D02*
X173037D01*
X163987Y44259D02*
Y52309D01*
X107287Y40459D02*
X160187D01*
X103487Y44259D02*
Y67259D01*
X107287Y71059D02*
X160187D01*
X163987Y59209D02*
Y67259D01*
X166487Y56709D02*
X173037D01*
X175537Y59209D02*
Y76709D01*
X96937Y81709D02*
X170537D01*
X94002Y56759D02*
X95986Y54759D01*
X100987D01*
X54750Y67900D02*
Y70000D01*
X54750Y70000D01*
X54750Y63500D02*
Y65100D01*
X54750Y70000D02*
X65250D01*
X54725Y45275D02*
X54750Y45300D01*
Y46875D01*
X54725Y45275D02*
X59725D01*
X59750Y45300D01*
Y46875D01*
X75905Y57825D02*
X76330Y58250D01*
X70250Y53675D02*
X75905D01*
X76330Y53250D01*
X65250Y68125D02*
Y70000D01*
X65250Y70000D01*
X70250Y57825D02*
X75905D01*
X56750Y57250D02*
Y59000D01*
X66100Y53750D02*
X70175D01*
X70250Y53675D01*
X66100Y58000D02*
X70075D01*
X70250Y57825D01*
X54750Y45250D02*
Y46875D01*
X77784Y49790D02*
Y55750D01*
X70000Y63000D02*
Y65500D01*
X67626Y68040D02*
X70000D01*
X65250Y64875D02*
X67375D01*
X67626Y65126D01*
Y68040D01*
X70000Y63000D02*
X74000D01*
Y65500D01*
X56450Y70050D02*
Y72500D01*
X54750D02*
X56450D01*
X71700D02*
X74000Y70200D01*
Y68040D02*
Y70200D01*
X63250Y73750D02*
X68800D01*
X62500Y63000D02*
X70000D01*
X59750Y68125D02*
X62375D01*
X62500Y68000D01*
Y63000D02*
Y68000D01*
X65250Y70000D02*
Y73750D01*
X62625Y77500D02*
X69000D01*
X56634D02*
X59375D01*
X56450Y77316D02*
X56634Y77500D01*
X74000Y63000D02*
X79000D01*
Y65500D01*
X79000Y73900D02*
Y76600D01*
X79000Y79400D02*
X83000D01*
Y75125D02*
Y79400D01*
X74000Y65500D02*
X75500D01*
X50875Y81500D02*
X52500D01*
Y77500D02*
X54125D01*
X56450Y74500D02*
Y77316D01*
X54125Y81500D02*
X56450D01*
Y77316D02*
Y81500D01*
X49000Y74000D02*
Y77500D01*
X50500D01*
X49000Y70000D02*
X54750D01*
X61500Y52800D02*
Y63000D01*
X62500D01*
X61450Y57050D02*
X63900D01*
X59750Y63500D02*
Y64875D01*
X52500Y74500D02*
Y81500D01*
Y74500D02*
X54550D01*
X71000Y77500D02*
X75500D01*
Y65500D02*
Y77500D01*
X49000Y70000D02*
Y71460D01*
X58375Y74500D02*
X59375Y73500D01*
X56450Y74500D02*
X58375D01*
X49000Y60960D02*
X54750D01*
Y59950D02*
Y60960D01*
X54750Y63500D02*
X59750D01*
X49000D02*
X54750D01*
X77908Y76600D02*
X79000D01*
Y79400D02*
X79712Y80112D01*
X69562Y89700D02*
X79712D01*
X66000Y79750D02*
X71500D01*
X71512Y81500D02*
X75462D01*
X66000D02*
X67700D01*
X73562Y88750D02*
X77762D01*
X71299Y82354D02*
X74354D01*
X62750Y84750D02*
X67750D01*
X75462Y83500D02*
X78762D01*
X71812D02*
X73562D01*
X70512Y88750D02*
X73562D01*
X69562Y86250D02*
X72500D01*
X67750Y84108D02*
X70533D01*
X71462Y85037D01*
X69512Y82250D02*
X71195D01*
X71299Y82354D01*
X62750Y83000D02*
X65300D01*
X79712Y80112D02*
Y87463D01*
X74512Y82512D02*
Y85037D01*
X69512Y81300D02*
Y82250D01*
X79712Y87463D02*
Y89700D01*
X78762Y83500D02*
Y85037D01*
X77812Y87463D02*
Y88700D01*
X75462Y83500D02*
Y87463D01*
X73562D02*
Y88750D01*
X71512Y83200D02*
X71812Y83500D01*
X72500D02*
Y86250D01*
X71512Y79762D02*
Y81500D01*
X70512Y87463D02*
Y88750D01*
X69562Y85037D02*
Y89700D01*
Y85037D02*
Y86250D01*
X67750Y83550D02*
Y84108D01*
X67700Y83500D02*
X67750Y83550D01*
X65300Y83000D02*
X65800Y83500D01*
X66000Y79750D02*
Y81500D01*
X74354Y82354D02*
X74512Y82512D01*
X71500Y79750D02*
X71512Y79762D01*
X69512Y82250D02*
Y83000D01*
X67750Y84108D02*
Y84750D01*
D11*
X54750Y67900D02*
D03*
Y65100D02*
D03*
X64750Y47100D02*
D03*
Y49900D02*
D03*
X79000Y76600D02*
D03*
Y79400D02*
D03*
X79000Y73900D02*
D03*
Y71100D02*
D03*
D12*
X70250Y53675D02*
D03*
Y57825D02*
D03*
D13*
X66100Y58000D02*
D03*
X63900Y57050D02*
D03*
Y58950D02*
D03*
X66100Y53750D02*
D03*
X63900Y52800D02*
D03*
Y54700D02*
D03*
D14*
X56750Y59000D02*
D03*
X54750Y58050D02*
D03*
Y59950D02*
D03*
D15*
X59750Y64875D02*
D03*
Y68125D02*
D03*
X65250Y64875D02*
D03*
Y68125D02*
D03*
X59750Y46875D02*
D03*
Y50125D02*
D03*
X54750Y50125D02*
D03*
Y46875D02*
D03*
X83000Y71125D02*
D03*
Y74375D02*
D03*
D16*
X59375Y77500D02*
D03*
X62625D02*
D03*
X50875Y81500D02*
D03*
X54125D02*
D03*
X50875Y77500D02*
D03*
X54125D02*
D03*
X59375Y73500D02*
D03*
X62625D02*
D03*
D17*
X68800Y71250D02*
D03*
Y73750D02*
D03*
D18*
X71700Y72500D02*
D03*
D19*
X54750D02*
D03*
X66000Y81500D02*
D03*
X73750Y81500D02*
D03*
D20*
X56450Y72500D02*
D03*
X54550Y74500D02*
D03*
X56450D02*
D03*
X67700Y83500D02*
D03*
X65800D02*
D03*
X67700Y81500D02*
D03*
X75450Y83500D02*
D03*
X73550D02*
D03*
X75450Y81500D02*
D03*
D21*
X54750Y54950D02*
D03*
Y53050D02*
D03*
X56750Y54950D02*
D03*
X71512Y81300D02*
D03*
Y83200D02*
D03*
X69512Y81300D02*
D03*
D22*
X56750Y53250D02*
D03*
X69512Y83000D02*
D03*
D23*
X79712Y87463D02*
D03*
X77812D02*
D03*
X78762Y85037D02*
D03*
X74512D02*
D03*
X73562Y87463D02*
D03*
X75462D02*
D03*
X69562Y85037D02*
D03*
X71462D02*
D03*
X70512Y87463D02*
D03*
D24*
X70000Y49540D02*
D03*
Y68040D02*
D03*
X74000D02*
D03*
X68960Y77500D02*
D03*
X49000Y60960D02*
D03*
X49250Y40710D02*
D03*
X81500Y54460D02*
D03*
X49000Y71960D02*
D03*
X79000Y68040D02*
D03*
X62790Y82500D02*
D03*
X49250Y49790D02*
D03*
D25*
X70000Y47000D02*
D03*
Y65500D02*
D03*
X74000D02*
D03*
X49000Y63500D02*
D03*
X49250Y43250D02*
D03*
X81500Y57000D02*
D03*
X49000Y74500D02*
D03*
X79000Y65500D02*
D03*
X49250Y47250D02*
D03*
D26*
X76330Y58250D02*
D03*
Y53250D02*
D03*
D27*
X71500Y77500D02*
D03*
X60250Y82500D02*
D03*
D28*
X94002Y56759D02*
D03*
X100987Y54759D02*
D03*
D29*
X77500Y83500D02*
D03*
X62750Y84750D02*
D03*
M02*
