%FSLAX43Y43*%
%MOMM*%
G71*
G01*
G75*
G04 Layer_Physical_Order=2*
G04 Layer_Color=16711680*
%ADD10C,0.500*%
%ADD11R,2.700X1.600*%
%ADD12R,1.000X0.850*%
%ADD13R,1.400X1.000*%
%ADD14R,0.900X0.800*%
%ADD15R,2.950X1.450*%
%ADD16R,1.600X1.300*%
%ADD17R,1.600X2.000*%
%ADD18R,1.000X0.700*%
%ADD19R,0.600X0.700*%
%ADD20R,0.700X0.600*%
%ADD21R,0.700X1.000*%
%ADD22C,1.524*%
%ADD23C,1.800*%
%ADD24R,1.800X1.800*%
%ADD25C,1.900*%
%ADD26C,1.000*%
D10*
X102987Y73509D02*
G03*
X100987Y71509I0J-2000D01*
G01*
Y40009D02*
G03*
X102987Y38009I2000J0D01*
G01*
X166487Y71509D02*
G03*
X164487Y73509I-2000J0D01*
G01*
Y38009D02*
G03*
X166487Y40009I0J2000D01*
G01*
X102987Y74509D02*
G03*
X99987Y71509I0J-3000D01*
G01*
X99987Y40009D02*
G03*
X102987Y37009I3000J0D01*
G01*
X167487Y71509D02*
G03*
X164487Y74509I-3000J0D01*
G01*
Y37009D02*
G03*
X167487Y40009I0J3000D01*
G01*
X102987Y75509D02*
G03*
X98987Y71509I0J-4000D01*
G01*
Y40009D02*
G03*
X102987Y36009I4000J0D01*
G01*
X168487Y71509D02*
G03*
X164487Y75509I-4000J0D01*
G01*
Y36009D02*
G03*
X168487Y40009I0J4000D01*
G01*
X102987Y76509D02*
G03*
X97987Y71509I0J-5000D01*
G01*
X97987Y40009D02*
G03*
X102987Y35009I5000J0D01*
G01*
X169487Y71509D02*
G03*
X164487Y76509I-5000J0D01*
G01*
X164487Y35009D02*
G03*
X169487Y40009I0J5000D01*
G01*
X97002Y56759D02*
G03*
X98002Y57759I0J1000D01*
G01*
X76330Y53500D02*
X85250D01*
Y54759D01*
X94002D01*
X85259Y56759D02*
Y58241D01*
X85250Y58250D02*
X85259Y58241D01*
X76330Y58250D02*
X85250D01*
X100987Y40009D02*
Y54611D01*
X97987Y57759D02*
Y71509D01*
X98987Y39964D02*
Y54759D01*
X99987Y40009D02*
Y54759D01*
X166487Y40009D02*
Y71509D01*
X102987Y73509D02*
X164487D01*
X100987Y56759D02*
Y71509D01*
X102987Y38009D02*
X164487D01*
X102987Y74509D02*
X164487D01*
X99987Y56759D02*
Y71509D01*
X102987Y37009D02*
X164487D01*
X167487Y40009D02*
Y71509D01*
X168487Y40009D02*
Y71509D01*
X98987Y56759D02*
Y71509D01*
X102987Y75509D02*
X164487D01*
X102987Y36009D02*
X164487D01*
X169487Y40009D02*
Y71509D01*
X97987Y40009D02*
Y54759D01*
X102987Y35009D02*
X164487D01*
X102987Y76509D02*
X164487D01*
X99987Y54759D02*
X100987Y56759D01*
X98987Y54759D02*
X99987Y56759D01*
X97987Y54759D02*
X98987Y56759D01*
X96002D02*
X97002D01*
X94002Y54759D02*
X96002Y56759D01*
X85259D02*
X94002D01*
D22*
X45000Y27000D02*
D03*
X175000D02*
D03*
Y85000D02*
D03*
X45000D02*
D03*
D23*
X70000Y49540D02*
D03*
X48500Y78460D02*
D03*
X49250Y40710D02*
D03*
X48500Y67540D02*
D03*
X70250Y64960D02*
D03*
X75750Y67290D02*
D03*
Y76040D02*
D03*
X49000Y49540D02*
D03*
D24*
X70000Y47000D02*
D03*
X48500Y81000D02*
D03*
X49250Y43250D02*
D03*
X48500Y65000D02*
D03*
X70250Y67500D02*
D03*
X75750Y64750D02*
D03*
Y73500D02*
D03*
X49000Y47000D02*
D03*
D25*
X76330Y58250D02*
D03*
Y53250D02*
D03*
D26*
X94002Y56759D02*
D03*
X100987Y54759D02*
D03*
M02*
