M48
;Layer_Color=9474304
;FILE_FORMAT=4:3
METRIC,LZ
;TYPE=PLATED
T1F00S00C0.500
T2F00S00C0.711
T3F00S00C1.000
T4F00S00C1.200
%
T01
X0094002Y0056759
X0100987Y0054759
T02
X006275Y008475
X00775Y00835
T03
X004925Y004071
Y004325
X0049Y0047
Y004954
Y006096
Y00635
Y007146
Y0074
X006896Y00775
X00715
X007Y006804
Y00655
X0074
Y006804
X0079
Y00655
X007Y004954
Y0047
X006279Y00825
X006025
T04
X007633Y005325
Y005825
M30
